<svg xmlns="http://www.w3.org/2000/svg" width="62" height="62" viewBox="0 0 62 62">
  <g id="ajustes" transform="translate(0)">
    <path id="Trazado_213" data-name="Trazado 213" d="M31,62a6.789,6.789,0,0,1-6.781-6.781V53.245a23.028,23.028,0,0,1-4.153-1.721l-1.4,1.4a6.781,6.781,0,1,1-9.59-9.59l1.4-1.4a23.04,23.04,0,0,1-1.721-4.153H6.781a6.781,6.781,0,0,1,0-13.563H8.755a23.027,23.027,0,0,1,1.721-4.153l-1.4-1.4a6.781,6.781,0,1,1,9.59-9.59l1.4,1.4a23.036,23.036,0,0,1,4.153-1.721V6.781A6.783,6.783,0,0,1,31,0a6.876,6.876,0,0,1,1.35.135,6.8,6.8,0,0,1,5.431,6.646V8.755a23.027,23.027,0,0,1,4.153,1.721l1.4-1.4a6.781,6.781,0,1,1,9.59,9.59l-1.4,1.4a23.041,23.041,0,0,1,1.721,4.153h1.974a6.781,6.781,0,0,1,0,13.563H53.245a23.028,23.028,0,0,1-1.721,4.153l1.4,1.4a6.781,6.781,0,0,1-9.59,9.59l-1.4-1.4a23.037,23.037,0,0,1-4.153,1.721v1.973a6.786,6.786,0,0,1-5.427,6.646h0A6.876,6.876,0,0,1,31,62Zm.969-2.034h0Zm-12.221-12.8a1.932,1.932,0,0,1,1.024.293,19.2,19.2,0,0,0,5.823,2.413,1.938,1.938,0,0,1,1.5,1.887v3.46A2.91,2.91,0,0,0,31,58.125a2.99,2.99,0,0,0,.584-.058,2.911,2.911,0,0,0,2.322-2.848v-3.46a1.938,1.938,0,0,1,1.5-1.887,19.2,19.2,0,0,0,5.823-2.413,1.937,1.937,0,0,1,2.394.275l2.447,2.447a2.906,2.906,0,0,0,4.11-4.11l-2.447-2.447a1.938,1.938,0,0,1-.275-2.394,19.2,19.2,0,0,0,2.413-5.823,1.938,1.938,0,0,1,1.887-1.5h3.46a2.906,2.906,0,0,0,0-5.813h-3.46a1.938,1.938,0,0,1-1.887-1.5,19.2,19.2,0,0,0-2.413-5.823,1.937,1.937,0,0,1,.275-2.394l2.447-2.447a2.906,2.906,0,0,0-4.11-4.11l-2.447,2.447a1.937,1.937,0,0,1-2.394.275,19.2,19.2,0,0,0-5.823-2.413,1.938,1.938,0,0,1-1.5-1.887V6.781a2.914,2.914,0,0,0-2.323-2.848A2.985,2.985,0,0,0,31,3.875a2.908,2.908,0,0,0-2.906,2.906v3.46a1.938,1.938,0,0,1-1.5,1.887,19.2,19.2,0,0,0-5.823,2.413,1.937,1.937,0,0,1-2.394-.275L15.93,11.819a2.906,2.906,0,0,0-4.11,4.11l2.447,2.447a1.938,1.938,0,0,1,.275,2.394,19.2,19.2,0,0,0-2.413,5.823,1.937,1.937,0,0,1-1.887,1.5H6.781a2.906,2.906,0,0,0,0,5.812h3.46a1.938,1.938,0,0,1,1.887,1.5,19.2,19.2,0,0,0,2.413,5.823,1.937,1.937,0,0,1-.275,2.394L11.819,46.07a2.906,2.906,0,0,0,4.11,4.11l2.447-2.447a1.936,1.936,0,0,1,1.371-.567Z" transform="translate(0 0)" fill="#028fb6"/>
    <path id="Trazado_214" data-name="Trazado 214" d="M157.562,171.125a13.562,13.562,0,0,1,0-27.125c.385,0,.768.016,1.137.048a13.562,13.562,0,0,1-.009,27.029C158.33,171.109,157.948,171.125,157.562,171.125Zm0-23.25a9.687,9.687,0,0,0,0,19.375c.273,0,.543-.011.8-.034a9.687,9.687,0,0,0,.009-19.307C158.105,147.886,157.836,147.875,157.562,147.875Z" transform="translate(-126.563 -126.562)" fill="#028fb6"/>
  </g>
</svg>
