<svg xmlns="http://www.w3.org/2000/svg" width="60.115" height="60.115" viewBox="0 0 60.115 60.115">
  <g id="cruzar" transform="translate(0.25 0.25)">
    <g id="Grupo_2" data-name="Grupo 2">
      <g id="Grupo_1" data-name="Grupo 1">
        <path id="Trazado_215" data-name="Trazado 215" d="M29.808,0A29.808,29.808,0,1,0,59.615,29.808,29.826,29.826,0,0,0,29.808,0Zm0,57.03A27.222,27.222,0,1,1,57.03,29.808,27.251,27.251,0,0,1,29.808,57.03Z" fill="#028fb6" stroke="#028fb6" stroke-width="0.5"/>
      </g>
    </g>
    <g id="Grupo_4" data-name="Grupo 4" transform="translate(13 13)">
      <g id="Grupo_3" data-name="Grupo 3">
        <path id="Trazado_216" data-name="Trazado 216" d="M104.722,82.743h-9.05v-9.05A1.288,1.288,0,0,0,94.379,72.4H84.036a1.288,1.288,0,0,0-1.293,1.293v9.05h-9.05A1.287,1.287,0,0,0,72.4,84.036V94.379a1.288,1.288,0,0,0,1.293,1.293h9.05v9.05a1.288,1.288,0,0,0,1.293,1.293H94.379a1.288,1.288,0,0,0,1.293-1.293v-9.05h9.05a1.288,1.288,0,0,0,1.293-1.293V84.036A1.389,1.389,0,0,0,104.722,82.743ZM103.5,93.086H94.379a1.287,1.287,0,0,0-1.293,1.293v9.05H85.329v-9.05a1.287,1.287,0,0,0-1.293-1.293h-9.05V85.329h9.05a1.287,1.287,0,0,0,1.293-1.293v-9.05h7.829v9.05a1.287,1.287,0,0,0,1.293,1.293h9.05Z" transform="translate(-72.4 -72.4)" fill="#028fb6" stroke="#028fb6" stroke-width="0.5"/>
      </g>
    </g>
  </g>
</svg>
