<svg id="envelope" xmlns="http://www.w3.org/2000/svg" width="15.523" height="11.813" viewBox="0 0 15.523 11.813">
  <g id="Grupo_15" data-name="Grupo 15" transform="translate(0 0)">
    <path id="Trazado_2044" data-name="Trazado 2044" d="M13.628,57.75H1.9a1.9,1.9,0,0,0-1.9,1.9v8.017a1.9,1.9,0,0,0,1.9,1.9H13.625a1.9,1.9,0,0,0,1.9-1.9V59.651A1.9,1.9,0,0,0,13.628,57.75Zm1.031,9.915A1.032,1.032,0,0,1,13.628,68.7H1.9A1.032,1.032,0,0,1,.867,67.665V59.651A1.032,1.032,0,0,1,1.9,58.62H13.625a1.032,1.032,0,0,1,1.031,1.031v8.014Z" transform="translate(0 -57.75)" fill="#232530"/>
    <path id="Trazado_2045" data-name="Trazado 2045" d="M63.752,113.067l3.8-3.4a.434.434,0,0,0-.581-.646l-5.235,4.7L60.71,112.8s-.006-.006-.006-.01a.642.642,0,0,0-.071-.061l-4.156-3.719a.435.435,0,0,0-.578.649L59.74,113.1l-3.825,3.581a.435.435,0,0,0-.019.613.444.444,0,0,0,.318.138.434.434,0,0,0,.3-.116l3.883-3.633,1.054.941a.432.432,0,0,0,.578,0l1.082-.97,3.861,3.668a.435.435,0,0,0,.613-.016.435.435,0,0,0-.016-.613Z" transform="translate(-53.962 -107.259)" fill="#232530"/>
  </g>
</svg>
