<svg xmlns="http://www.w3.org/2000/svg" width="16.686" height="24.469" viewBox="0 0 16.686 24.469">
  <path id="persona" d="M90.056,17.086a1.66,1.66,0,0,1-1.428-.8.4.4,0,1,0-.682.416,2.466,2.466,0,0,0,.836.833l-.414,1.879-1-1.149a.4.4,0,1,0-.582-.548l-.7.808-1.769-1.966a2.44,2.44,0,0,0,.268-.937,5.349,5.349,0,0,0,6.85-5.126V7.2a.4.4,0,0,0-.8,0v3.3a4.544,4.544,0,1,1-9.088,0V7.1a2.256,2.256,0,0,0,2.1-1.775,13.665,13.665,0,0,0,5.484,2.029.4.4,0,0,0,.111-.791,12.874,12.874,0,0,1-5.664-2.248.4.4,0,0,0-.63.329,1.817,1.817,0,0,1-.76,1.456,1.644,1.644,0,0,1-1.039.193.4.4,0,0,0-.4.353v3.2a.825.825,0,0,1-.449-.731V4.244a.95.95,0,0,1,.949-.949.4.4,0,0,0,.371-.251A3.555,3.555,0,0,1,84.934.8H88.36a3.576,3.576,0,0,1,3.572,3.572v4.74a.4.4,0,1,0,.8,0V4.371A4.376,4.376,0,0,0,88.359,0H84.934a4.349,4.349,0,0,0-3.959,2.518A1.751,1.751,0,0,0,79.5,4.244V9.111a1.63,1.63,0,0,0,1.25,1.579,5.351,5.351,0,0,0,3.042,4.626v.1a1.666,1.666,0,0,1-1.669,1.665A4.121,4.121,0,0,0,78,21.209v2.36a.4.4,0,1,0,.8,0v-2.36a3.322,3.322,0,0,1,3.324-3.324,2.493,2.493,0,0,0,.522-.055l.557,2.53a.4.4,0,0,0,.692.176l.787-.906L84.2,23.52a.4.4,0,0,0,.793.1l.562-4.5c.025.028.247.277.276.3a.4.4,0,0,0,.563-.035l.24-.275.563,4.5a.4.4,0,0,0,.793-.1L87.5,19.62l.787.906a.4.4,0,0,0,.692-.176l.557-2.53a2.508,2.508,0,0,0,.522.056A3.322,3.322,0,0,1,93.386,21.2v2.36a.4.4,0,0,0,.8,0V21.2a4.121,4.121,0,0,0-4.123-4.123Zm-6.244,2.326-.412-1.88a2.481,2.481,0,0,0,.427-.327l.969,1.076Z" transform="translate(-77.75 0.25)" fill="#7467f0" stroke="#7467f0" stroke-width="0.5"/>
</svg>
