<svg xmlns="http://www.w3.org/2000/svg" width="16.056" height="16.051" viewBox="0 0 16.056 16.051">
  <g id="key" transform="translate(0.25 0.282)">
    <g id="Grupo_17" data-name="Grupo 17" transform="translate(10.161 3.061)">
      <g id="Grupo_16" data-name="Grupo 16" transform="translate(0 0)">
        <circle id="Elipse_2" data-name="Elipse 2" cx="1" cy="1" r="1" transform="translate(-0.161 0.223)" stroke="#fff" stroke-width="0.5"/>
      </g>
    </g>
    <g id="Grupo_19" data-name="Grupo 19" transform="translate(0 0)">
      <g id="Grupo_18" data-name="Grupo 18">
        <path id="Trazado_2049" data-name="Trazado 2049" d="M15.356,5.1a8.846,8.846,0,0,0-1.907-3A8.642,8.642,0,0,0,10.471.227,2.438,2.438,0,0,0,7.885.775L5.5,3.145A2.426,2.426,0,0,0,5,5.835c.125.281.261.556.406.822L.178,11.883A.606.606,0,0,0,0,12.312V14.98a.606.606,0,0,0,.606.606H3.274a.606.606,0,0,0,.606-.606V13.888H4.972a.606.606,0,0,0,.606-.606V12.19H6.67a.606.606,0,1,0,0-1.213h-1.7a.606.606,0,0,0-.606.606v1.091H3.274a.606.606,0,0,0-.606.606v1.091H1.213V12.563L6.59,7.186a.606.606,0,0,0,.09-.743,9.813,9.813,0,0,1-.574-1.1A1.207,1.207,0,0,1,6.36,4l2.381-2.37a1.223,1.223,0,0,1,1.3-.275,7.424,7.424,0,0,1,2.555,1.6,7.629,7.629,0,0,1,1.634,2.583,1.2,1.2,0,0,1-.272,1.294l-2.41,2.4a1.221,1.221,0,0,1-1.335.26,7.871,7.871,0,0,1-1.091-.557.606.606,0,0,0-.634,1.034,9.088,9.088,0,0,0,1.26.643,2.43,2.43,0,0,0,2.656-.52l2.41-2.4A2.416,2.416,0,0,0,15.356,5.1Z" transform="translate(0 -0.067)" stroke="#fff" stroke-width="0.5"/>
      </g>
    </g>
  </g>
</svg>
