<svg xmlns="http://www.w3.org/2000/svg" width="17.292" height="24.47" viewBox="0 0 17.292 24.47">
  <path id="mujer" d="M89.416,21.209v2.36a.4.4,0,1,1-.8,0v-2.36a3.322,3.322,0,0,0-3.324-3.324,2.453,2.453,0,0,1-2.11-1.185.4.4,0,1,1,.682-.416,1.66,1.66,0,0,0,1.428.8,4.121,4.121,0,0,1,4.124,4.125Zm-6.665-3.093-1.425,1.1L78.9,17.344a2.447,2.447,0,0,0,.916-1.725,5.344,5.344,0,0,0,6.85-5.126c0-.031,0-2.8,0-2.828a.4.4,0,0,0-.4-.374A1.644,1.644,0,0,1,85.228,7.1a1.818,1.818,0,0,1-.755-1.453.4.4,0,0,0-.63-.329,12.874,12.874,0,0,1-5.664,2.248.4.4,0,0,0,.055.8,13.144,13.144,0,0,0,2.831-.693,13.7,13.7,0,0,0,2.71-1.34,2.256,2.256,0,0,0,2.1,1.775V10.5a4.544,4.544,0,1,1-9.088,0V7.69a.4.4,0,0,0-.8,0v2.8a5.35,5.35,0,0,0,3.046,4.823v.1a1.665,1.665,0,0,1-1.669,1.665,4.121,4.121,0,0,0-1.474.271l-.258-.2a4.879,4.879,0,0,1-1.023-6.526,5.519,5.519,0,0,0,.929-3.069V5.393A4.6,4.6,0,0,1,80.129.8h2.4a4.6,4.6,0,0,1,4.594,4.594V7.557a5.491,5.491,0,0,0,.924,3.063A4.88,4.88,0,0,1,88,16.1a.4.4,0,1,0,.658.453,5.678,5.678,0,0,0,.045-6.381,4.694,4.694,0,0,1-.79-2.619V5.393A5.4,5.4,0,0,0,82.525,0h-2.4a5.4,5.4,0,0,0-5.393,5.393V7.557a4.722,4.722,0,0,1-.795,2.626A5.677,5.677,0,0,0,75.1,17.757a4.112,4.112,0,0,0-1.868,3.453v2.36a.4.4,0,1,0,.8,0V21.21a3.322,3.322,0,0,1,3.324-3.324,2.477,2.477,0,0,0,.777-.125l2.944,2.28a.4.4,0,0,0,.489,0l1.669-1.292a.4.4,0,0,0-.489-.632Z" transform="translate(-72.726 0.25)" fill="#eb5456" stroke="#eb5456" stroke-width="0.5"/>
</svg>
