<svg width="125px" height="125px" viewBox="0 0 125 125" version="1.1" xmlns="http://www.w3.org/2000/svg" xmlns:xlink="http://www.w3.org/1999/xlink">
    <!-- Generator: Sketch 63.1 (92452) - https://sketch.com -->
    <title>Logo icono</title>
    <desc>Created with Sketch.</desc>
    <g id="Logo-icono" stroke="none" stroke-width="1" fill="none" fill-rule="evenodd">
        <g id="Ellipse-66" transform="translate(-0.623535, 0.408691)" fill="#FFFFFF" fill-rule="nonzero">
            <path d="M62.6687035,0.197519743 C79.6316114,0.197519743 94.1909791,10.1762721 100.472492,24.4169694 C114.711314,30.6970863 124.68916,45.2558935 124.68916,62.2178961 C124.68916,79.1800086 114.711344,93.7388063 100.471714,100.020801 C94.1896045,114.260516 79.6307979,124.238353 62.6687035,124.238353 C45.7067243,124.238353 31.1479056,114.260479 24.8658917,100.020871 C10.6271,93.7401625 0.648327193,79.1807858 0.648327193,62.2178961 C0.648327193,45.2555191 10.6266687,30.6964155 24.8668101,24.4146424 C31.1472111,10.1758334 45.7063032,0.197519743 62.6687035,0.197519743 Z M62.6691703,96.4735081 L62.6532222,96.4838504 C56.3301656,100.808149 48.7418009,103.327235 40.5828617,103.327235 C37.0438182,103.327235 33.6121265,102.853266 30.3444864,101.963589 C36.710301,112.866605 48.7887125,120.238353 62.6687035,120.238353 C76.5487986,120.238353 88.6272102,112.866635 94.9927992,101.964874 C91.7246545,102.853363 88.2932962,103.327235 84.7546057,103.327235 C76.589189,103.327235 68.9952434,100.804131 62.6691703,96.4735081 Z M94.3488001,65.5825873 L94.2913131,65.6505947 C89.9071734,70.771868 84.2295763,74.8114306 77.7450611,77.295787 C75.251323,83.8072904 71.1871364,89.5062847 66.0338027,93.8982643 C71.4887803,97.3430584 77.9005098,99.3272352 84.7546057,99.3272352 C89.2064484,99.3272352 93.4716662,98.4901753 97.409423,96.9594387 C98.9409815,93.0208583 99.7780426,88.7556484 99.7780426,84.3038183 C99.7780426,77.4497031 97.7938688,71.0379652 94.3488001,65.5825873 Z M30.9884407,65.5829565 L30.8140929,65.8619479 C27.4766699,71.256339 25.5594448,77.5663601 25.5594448,84.3038183 C25.5594448,88.7556336 26.3965096,93.0208353 27.9272519,96.9585836 C31.8658217,98.490174 36.1310315,99.3272352 40.5828617,99.3272352 C47.4369769,99.3272352 53.8487148,97.3430614 59.3040926,93.8979926 C54.1503626,89.5062744 50.086172,83.8072786 47.590893,77.2942536 C41.0788328,74.8000768 35.3801999,70.73603 30.9884407,65.5829565 Z M102.415668,29.8938868 L102.422578,29.9237719 C103.306979,33.1823906 103.778043,36.6038843 103.778043,40.1320743 C103.778043,48.2979106 101.254679,55.8922171 96.9236479,62.218485 C101.254942,68.5444268 103.778043,76.1383806 103.778043,84.3038183 C103.778043,87.8424997 103.30417,91.2738513 102.414669,94.5411905 C113.317459,88.1764136 120.68916,76.098008 120.68916,62.2178961 C120.68916,48.3378833 113.317435,36.2594794 102.415668,29.8938868 Z M22.9230935,29.8936962 L22.6193666,30.0725123 C11.8839443,36.4837337 4.64832719,48.4666596 4.64832719,62.2178961 C4.64832719,76.0979911 12.0200445,88.1764027 22.9218059,94.5419917 C22.0333191,91.2738336 21.5594448,87.8424892 21.5594448,84.3038183 C21.5594448,76.1384 24.0825548,68.5444511 28.4131788,62.2183747 C24.0828184,55.8921865 21.5594448,48.2978863 21.5594448,40.1320743 C21.5594448,36.5930301 22.0334152,33.1613373 22.9230935,29.8936962 Z M72.7073997,78.867137 L72.5491615,78.9057694 C69.3843034,79.6642322 66.0749622,80.0666088 62.6687035,80.0666088 C59.2059673,80.0666088 55.8433851,79.6507712 52.6309301,78.867729 C55.0372097,83.8101935 58.482468,88.1192404 62.6683479,91.4913664 C66.8550311,88.1192503 70.3002867,83.810205 72.7073997,78.867137 Z M62.6687035,48.3692637 C58.4874897,48.3692637 54.4697637,49.0382145 50.7224428,50.2710992 C49.489024,54.0189667 48.8200712,58.0366888 48.8200712,62.2178961 C48.8200712,66.3991347 49.4890213,70.4168787 50.7219048,74.1642125 C54.4697741,75.397656 58.4874962,76.0666088 62.6687035,76.0666088 C66.8499422,76.0666088 70.8676862,75.3976587 74.61502,74.1647752 C75.8484676,70.4168868 76.5174162,66.3991398 76.5174162,62.2178961 C76.5174162,58.0366822 75.8484654,54.0189562 74.6155808,50.2716354 C70.8676942,49.0382123 66.8499472,48.3692637 62.6687035,48.3692637 Z M46.018951,52.1801227 L45.6019024,52.3858934 C40.8340234,54.7815748 36.6728062,58.1494399 33.3961215,62.216557 C36.766776,66.4036412 41.0761122,69.8492615 46.0195576,72.2565743 C45.2359937,69.0439551 44.8200712,65.6810157 44.8200712,62.2178961 C44.8200712,58.7551599 45.2359088,55.3925777 46.018951,52.1801227 Z M79.3179444,52.1792802 L79.3565759,52.3374829 C80.1150393,55.5023294 80.5174162,58.8116558 80.5174162,62.2178961 C80.5174162,65.6810194 80.1014945,69.0439614 79.3182982,72.2567347 C84.2610009,69.8494703 88.5700479,66.404212 91.9421738,62.218332 C88.5700578,58.0316488 84.2610125,54.5863933 79.3179444,52.1792802 Z M84.7546057,25.1086373 C77.9005326,25.1086373 71.4888101,27.0928229 66.0334344,30.5378997 C71.1868538,34.9293792 75.2508949,40.6280101 77.7462088,47.1405996 C84.2580979,49.6353569 89.9570921,53.6995436 94.3490717,58.8528772 C97.7938658,53.3978996 99.7780426,46.9861701 99.7780426,40.1320743 C99.7780426,35.6802316 98.9409827,31.4150138 97.4102462,27.477257 C93.4716477,25.9457006 89.2064365,25.1086373 84.7546057,25.1086373 Z M40.5828617,25.1086373 C36.1310463,25.1086373 31.8658446,25.9457022 27.9280963,27.4764444 C26.396508,31.4150322 25.5594448,35.6802434 25.5594448,40.1320743 C25.5594448,46.985975 27.5435306,53.3975474 30.9884472,58.852834 C35.3809204,53.6993029 41.0792369,49.6356244 47.591407,47.1404712 C50.0864425,40.6284446 54.1501267,34.9301261 59.3027283,30.5384814 C53.8483684,27.0927193 47.4367863,25.1086373 40.5828617,25.1086373 Z M62.670123,32.9453141 C58.4797645,36.3200641 55.0362745,40.6276537 52.6301056,45.5687502 C55.8433771,44.7851002 59.2059625,44.3692637 62.6687035,44.3692637 C66.1318268,44.3692637 69.4947688,44.7851854 72.7075422,45.5683817 C70.3004628,40.6260728 66.8555568,36.317321 62.670123,32.9453141 Z M62.6687035,4.19751974 C48.7886907,4.19751974 36.7102869,11.5692448 30.3446943,22.4710122 C33.6121441,21.5826086 37.0438287,21.1086373 40.5828617,21.1086373 C48.7486996,21.1086373 56.3430093,23.6320066 62.6692806,27.963039 C68.9952739,23.6317516 76.5892133,21.1086373 84.7546057,21.1086373 C88.2932878,21.1086373 91.7246404,21.5825108 94.9919808,22.472013 C88.6272211,11.5692206 76.5488154,4.19751974 62.6687035,4.19751974 Z" id="Combined-Shape"></path>
        </g>
    </g>
</svg>