<svg xmlns="http://www.w3.org/2000/svg" width="59.952" height="58.769" viewBox="0 0 59.952 58.769">
  <g id="virus_1_" data-name="virus (1)" transform="translate(0.15 0.154)">
    <path id="Trazado_217" data-name="Trazado 217" d="M93.684,147.85a2.69,2.69,0,0,0-3.062,1.767l-3.064-1.338c.006-.21.009-.416.009-.618a21.4,21.4,0,0,0-.671-5.322l1.374-.932a3.061,3.061,0,0,0,4.872-3.42l-.647-1.736a3.08,3.08,0,0,0-3.841-1.889,3.068,3.068,0,0,0-2.11,2.905l-1.559.218c-.214-.392-.447-.788-.7-1.184a.875.875,0,0,0-1.481.933c.294.467.564.934.8,1.39a1.223,1.223,0,0,0,1.25.645l2.812-.392a.875.875,0,0,0,.7-1.162,1.311,1.311,0,0,1,.827-1.69,1.351,1.351,0,0,1,1.655.838L91.5,138.6a1.358,1.358,0,0,1-.684,1.713,1.317,1.317,0,0,1-1.646-.52.875.875,0,0,0-1.239-.27L85.6,141.1a1.219,1.219,0,0,0-.49,1.335,19.627,19.627,0,0,1,.705,5.224c0,.29-.007.594-.022.9a1.226,1.226,0,0,0,.729,1.175l4.372,1.909a.875.875,0,0,0,1.209-.633l.139-.706a.939.939,0,0,1,1.843.362l-.717,3.654a.939.939,0,0,1-1.148.731.976.976,0,0,1-.685-1.142l.019-.1a.875.875,0,0,0-.9-1.042l-4.729.216a1.227,1.227,0,0,0-1.1.836,19.521,19.521,0,0,1-1.728,3.8,1.221,1.221,0,0,0,.115,1.407l2.092,2.485a.875.875,0,0,0,1.273.07,1.308,1.308,0,0,1,1.94,1.744l-.606.792a1.353,1.353,0,0,1-1.813.326,1.316,1.316,0,0,1-.5-1.5.875.875,0,0,0-.477-1.081l-3.014-1.324a1.219,1.219,0,0,0-1.392.3,19.647,19.647,0,0,1-4.612,3.737,1.227,1.227,0,0,0-.589,1.25l.772,4.7a.875.875,0,0,0,1.189.671l.668-.267a.939.939,0,0,1,1.237.567.976.976,0,0,1-.587,1.2l-3.409,1.364a.939.939,0,0,1-1.237-.567.976.976,0,0,1,.587-1.2l.092-.037a.875.875,0,0,0,.387-1.321l-2.751-3.854a1.227,1.227,0,0,0-1.3-.471,19.7,19.7,0,0,1-8.858.231,1.228,1.228,0,0,0-1.273.538l-2.753,4.318A.875.875,0,0,0,58.717,173l.1.036a1.332,1.332,0,0,1,.8,1.708.873.873,0,0,0-.053.3.682.682,0,0,1-1.032.722l-3.382-1.233a1.338,1.338,0,0,1-.8-1.683,1.29,1.29,0,0,1,.677-.744,1.424,1.424,0,0,1,1.094-.056l.077.028a.875.875,0,0,0,1.169-.726l.56-5.06a1.227,1.227,0,0,0-.654-1.217,19.589,19.589,0,0,1-5.44-4.153,1.224,1.224,0,0,0-1.36-.3l-4.127,1.693a.875.875,0,0,0-.44,1.222,1.063,1.063,0,0,1-.357,1.4,1.105,1.105,0,0,1-1.5-.329l-1.057-1.522a1.1,1.1,0,0,1,.184-1.491,1.068,1.068,0,0,1,1.516.194.875.875,0,0,0,1.353.052l2.907-3.286a1.222,1.222,0,0,0,.152-1.4,19.6,19.6,0,0,1-.864-1.764.875.875,0,0,0-1.608.691c.234.544.49,1.078.763,1.593l-2.082,2.354a2.824,2.824,0,0,0-3.22.192,2.85,2.85,0,0,0-.538,3.865l1.057,1.522a2.866,2.866,0,0,0,3.9.793,2.806,2.806,0,0,0,1.244-2.767l3.043-1.248a21.329,21.329,0,0,0,5.35,4.083l-.416,3.759a3.186,3.186,0,0,0-1.459.308,3.027,3.027,0,0,0-1.578,1.755,3.1,3.1,0,0,0,1.859,3.9l3.382,1.233a2.948,2.948,0,0,0,1.009.185,2.336,2.336,0,0,0,1.351-.412,2.51,2.51,0,0,0,1.018-1.986,3.088,3.088,0,0,0-1.045-3.338l2.055-3.223a21.532,21.532,0,0,0,8.935-.232l2,2.8a2.684,2.684,0,0,0,2.789,4.49l3.409-1.364a2.712,2.712,0,0,0,1.591-3.394,2.668,2.668,0,0,0-1.424-1.568,2.7,2.7,0,0,0-1.767-.163l-.541-3.3a21.386,21.386,0,0,0,4.451-3.6l2.036.894a3.058,3.058,0,0,0,5.515,1.991l.606-.792a3.06,3.06,0,0,0-3.772-4.61l-1.343-1.6a21.29,21.29,0,0,0,1.577-3.469l3.432-.157a2.683,2.683,0,0,0,5.285.1l.717-3.654A2.692,2.692,0,0,0,93.684,147.85Z" transform="translate(-36.24 -119.127)" fill="#028fb6" stroke="#028fb6" stroke-width="0.3"/>
    <path id="Trazado_218" data-name="Trazado 218" d="M5.638,36.014l3.28.758c.071.456.16.919.264,1.381a.875.875,0,1,0,1.707-.383c-.121-.537-.218-1.075-.291-1.6a1.226,1.226,0,0,0-.933-1.022L5.02,34.075a.875.875,0,0,0-1.072.845l0,.544a1.117,1.117,0,0,1-1.114,1.1A1.079,1.079,0,0,1,1.75,35.48l.03-3.375a1.177,1.177,0,0,1,.361-.831,1.051,1.051,0,0,1,.766-.307,1.1,1.1,0,0,1,1.066,1.1.875.875,0,0,0,1.075.857L9.66,31.844a1.226,1.226,0,0,0,.929-1.025,19.378,19.378,0,0,1,2.434-7.132,1.222,1.222,0,0,0-.127-1.4L10.7,19.7a.875.875,0,0,0-1.364.039L9.143,20a.855.855,0,0,1-1.231.14.89.89,0,0,1-.1-1.21l1.465-1.937a.854.854,0,0,1,1.4.973.875.875,0,0,0,.391,1.273l3.076,1.33a1.22,1.22,0,0,0,1.385-.3,19.633,19.633,0,0,1,4.825-3.85,1.227,1.227,0,0,0,.605-1.242l-.709-4.714a.875.875,0,0,0-1.18-.687l-.671.258a.939.939,0,0,1-1.229-.583.976.976,0,0,1,.6-1.188L21.2,6.94a.939.939,0,0,1,1.229.583.977.977,0,0,1-.6,1.188l-.093.036a.875.875,0,0,0-.4,1.315l2.7,3.89a1.227,1.227,0,0,0,1.292.488A19.678,19.678,0,0,1,30,13.879h0a1.224,1.224,0,0,0,1.152-.809l.893-2.5a.875.875,0,0,0-.563-1.13A1.417,1.417,0,0,1,30.5,7.921,1.378,1.378,0,0,1,31.028,7a1.507,1.507,0,0,1,1.108-.311l1.227.154A1.456,1.456,0,0,1,34.654,8.41,1.409,1.409,0,0,1,33.6,9.629a.875.875,0,0,0-.648.946l.31,2.709a1.22,1.22,0,0,0,.951,1.052A19.438,19.438,0,0,1,39.781,16.5a1.226,1.226,0,0,0,1.379-.108l3.7-3a.875.875,0,0,0-.007-1.365l-.563-.447a.939.939,0,0,1-.122-1.355.976.976,0,0,1,1.33-.084l2.876,2.283a.939.939,0,0,1,.122,1.355.977.977,0,0,1-1.329.084l-.078-.062a.875.875,0,0,0-1.339.319l-1.983,4.3a1.227,1.227,0,0,0,.236,1.362c.124.127.247.259.393.418a.875.875,0,0,0,1.288-1.185l-.177-.191L46.95,15.7a2.683,2.683,0,0,0,2.514-4.649L46.588,8.764a2.711,2.711,0,0,0-3.736.3,2.667,2.667,0,0,0-.654,2.015,2.7,2.7,0,0,0,.736,1.615L40.34,14.8a21.182,21.182,0,0,0-5.379-2.092l-.192-1.679a3.167,3.167,0,0,0-1.187-5.927l-1.227-.154a3.271,3.271,0,0,0-2.405.669,3.115,3.115,0,0,0-1.192,2.1,3.169,3.169,0,0,0,1.374,3l-.507,1.418a21.431,21.431,0,0,0-4.367.525L23.3,9.834a2.684,2.684,0,0,0-2.729-4.527L17.145,6.625A2.711,2.711,0,0,0,15.509,10a2.668,2.668,0,0,0,1.4,1.587,2.7,2.7,0,0,0,1.765.187l.5,3.3a21.37,21.37,0,0,0-4.681,3.733l-1.976-.854a2.62,2.62,0,0,0-.991-2.528,2.605,2.605,0,0,0-3.649.506L6.412,17.869a2.626,2.626,0,0,0,.379,3.611,2.584,2.584,0,0,0,1.966.588A2.615,2.615,0,0,0,10,21.582l1.325,1.557a21.1,21.1,0,0,0-2.416,7.085l-3.386.794a2.864,2.864,0,0,0-2.568-1.8,2.8,2.8,0,0,0-2.027.8,2.939,2.939,0,0,0-.9,2.074L0,35.464a2.829,2.829,0,0,0,2.829,2.854,2.875,2.875,0,0,0,2.809-2.3Z" transform="translate(0 -4.927)" fill="#028fb6" stroke="#028fb6" stroke-width="0.3"/>
    <path id="Trazado_219" data-name="Trazado 219" d="M151.938,141.536a.875.875,0,1,0-.82-1.546c-2.091,1.108-4.475.815-5.667-.7a3.765,3.765,0,0,1-.648-3.166,6.024,6.024,0,0,1,5.812-4.582,3.765,3.765,0,0,1,2.927,1.369,4.23,4.23,0,0,1-.033,4.845.875.875,0,0,0,1.492.915,5.952,5.952,0,0,0-.085-6.844,5.483,5.483,0,0,0-4.252-2.035,7.77,7.77,0,0,0-7.574,5.97,5.484,5.484,0,0,0,.986,4.61,5.581,5.581,0,0,0,4.456,2.029A7.294,7.294,0,0,0,151.938,141.536Z" transform="translate(-126.275 -115.225)" fill="#028fb6" stroke="#028fb6" stroke-width="0.3"/>
    <path id="Trazado_220" data-name="Trazado 220" d="M308.5,138.272a3.8,3.8,0,1,0-3.763,3.29A3.555,3.555,0,0,0,308.5,138.272Zm-5.777,0a2.086,2.086,0,1,1,2.013,1.54A1.827,1.827,0,0,1,302.727,138.272Z" transform="translate(-265.862 -119.808)" fill="#028fb6" stroke="#028fb6" stroke-width="0.3"/>
    <path id="Trazado_221" data-name="Trazado 221" d="M217.4,261.555a4.032,4.032,0,1,0-4.032,4.032A4.037,4.037,0,0,0,217.4,261.555Zm-6.314,0a2.282,2.282,0,1,1,2.282,2.282A2.284,2.284,0,0,1,211.086,261.555Z" transform="translate(-184.913 -228.053)" fill="#028fb6" stroke="#028fb6" stroke-width="0.3"/>
    <path id="Trazado_222" data-name="Trazado 222" d="M328.751,254.246a3.135,3.135,0,1,0-3.135,3.135A3.139,3.139,0,0,0,328.751,254.246Zm-4.521,0a1.385,1.385,0,1,1,1.385,1.385A1.387,1.387,0,0,1,324.23,254.246Z" transform="translate(-284.856 -222.388)" fill="#028fb6" stroke="#028fb6" stroke-width="0.3"/>
    <path id="Trazado_223" data-name="Trazado 223" d="M254.538,352.342a3.073,3.073,0,1,0-3.073-3.073A3.076,3.076,0,0,0,254.538,352.342Zm0-4.4a1.323,1.323,0,1,1-1.323,1.323A1.324,1.324,0,0,1,254.538,347.947Z" transform="translate(-222.127 -306.381)" fill="#028fb6" stroke="#028fb6" stroke-width="0.3"/>
    <path id="Trazado_224" data-name="Trazado 224" d="M135.982,306.683a3.164,3.164,0,1,0-3.164-3.164A3.168,3.168,0,0,0,135.982,306.683Zm0-4.579a1.414,1.414,0,1,1-1.414,1.414A1.416,1.416,0,0,1,135.982,302.1Z" transform="translate(-117.322 -265.886)" fill="#028fb6" stroke="#028fb6" stroke-width="0.3"/>
    <path id="Trazado_225" data-name="Trazado 225" d="M293.557,226.988a.875.875,0,0,0-.875-.875h-.773a.875.875,0,1,0,0,1.75h.773A.875.875,0,0,0,293.557,226.988Z" transform="translate(-257.078 -200.307)" fill="#028fb6" stroke="#028fb6" stroke-width="0.3"/>
    <path id="Trazado_226" data-name="Trazado 226" d="M203.4,358.963h.795a.875.875,0,1,0,0-1.75H203.4a.875.875,0,1,0,0,1.75Z" transform="translate(-178.896 -316.112)" fill="#028fb6" stroke="#028fb6" stroke-width="0.3"/>
    <path id="Trazado_227" data-name="Trazado 227" d="M134.459,249.741a.875.875,0,0,0,0-1.75h-.766a.875.875,0,0,0,0,1.75Z" transform="translate(-117.322 -219.633)" fill="#028fb6" stroke="#028fb6" stroke-width="0.3"/>
    <path id="Trazado_228" data-name="Trazado 228" d="M265.4,118.524a.875.875,0,0,0,0-1.75H264.33a.875.875,0,0,0,0,1.75Z" transform="translate(-232.718 -103.725)" fill="#028fb6" stroke="#028fb6" stroke-width="0.3"/>
    <path id="Trazado_229" data-name="Trazado 229" d="M323.354,332.8a.875.875,0,0,0,0,1.75h1.177a.875.875,0,0,0,0-1.75Z" transform="translate(-284.855 -294.544)" fill="#028fb6" stroke="#028fb6" stroke-width="0.3"/>
  </g>
</svg>
